<svg xmlns="http://www.w3.org/2000/svg" width="30" height="27"><g data-name="Сгруппировать 4"><path data-name="Контур 7" d="M27 10h-8V7l-6-7H2a2.006 2.006 0 00-2 2v23a2.006 2.006 0 002 2h15a2.006 2.006 0 002-2v-2h8a2.946 2.946 0 003-3v-7a2.946 2.946 0 00-3-3zM13 1.5L17.7 7H14a1.075 1.075 0 01-1-1zM18 25a1 1 0 01-1 1H2a1 1 0 01-1-1V2a1 1 0 011-1h10v5a2.006 2.006 0 002 2h4v2h-8a2.946 2.946 0 00-3 3v7a2.946 2.946 0 003 3h8zm11-5a2.006 2.006 0 01-2 2H10a2.006 2.006 0 01-2-2v-7a2.006 2.006 0 012-2h17a2.006 2.006 0 012 2z"/><path data-name="Контур 8" d="M13 13h-3v7h3a2.006 2.006 0 002-2v-3a2.006 2.006 0 00-2-2zm1 5a.945.945 0 01-1 1h-2v-5h2a.945.945 0 011 1z"/><path data-name="Контур 9" d="M24 14h1a.945.945 0 011 1h1a2.006 2.006 0 00-2-2h-1a2.006 2.006 0 00-2 2v3a2.006 2.006 0 002 2h1a2.006 2.006 0 002-2h-1a.945.945 0 01-1 1h-1a.945.945 0 01-1-1v-3a.945.945 0 011-1z"/><path data-name="Контур 10" d="M19 13h-1a2.006 2.006 0 00-2 2v3a2.006 2.006 0 002 2h1a2.006 2.006 0 002-2v-3a2.006 2.006 0 00-2-2zm1 5a.945.945 0 01-1 1h-1a.945.945 0 01-1-1v-3a.945.945 0 011-1h1a.945.945 0 011 1z"/></g></svg>