<svg xmlns="http://www.w3.org/2000/svg" width="30" height="27" viewBox="0 0 30 27">
  <g id="document-outlined-interface-symbol_icon-icons.com_57585" transform="translate(0 -28.688)">
    <g id="Сгруппировать_4" data-name="Сгруппировать 4" transform="translate(0 28.688)">
      <path id="Контур_7" data-name="Контур 7" d="M27,38.688H19v-3l-6-7H2a2.006,2.006,0,0,0-2,2v23a2.006,2.006,0,0,0,2,2H17a2.006,2.006,0,0,0,2-2v-2h8a2.946,2.946,0,0,0,3-3v-7A2.946,2.946,0,0,0,27,38.688Zm-14-8.5,4.7,5.5H14a1.075,1.075,0,0,1-1-1Zm5,23.5a1,1,0,0,1-1,1H2a1,1,0,0,1-1-1v-23a1,1,0,0,1,1-1H12v5a2.006,2.006,0,0,0,2,2h4v2H10a2.946,2.946,0,0,0-3,3v7a2.946,2.946,0,0,0,3,3h8Zm11-5a2.006,2.006,0,0,1-2,2H10a2.006,2.006,0,0,1-2-2v-7a2.006,2.006,0,0,1,2-2H27a2.006,2.006,0,0,1,2,2Z" transform="translate(0 -28.688)"/>
      <path id="Контур_8" data-name="Контур 8" d="M194.25,277.312h-3v7h3a2.006,2.006,0,0,0,2-2v-3A2.006,2.006,0,0,0,194.25,277.312Zm1,5a.945.945,0,0,1-1,1h-2v-5h2a.945.945,0,0,1,1,1Z" transform="translate(-181.25 -264.312)"/>
      <path id="Контур_9" data-name="Контур 9" d="M422.75,278.313h1a.945.945,0,0,1,1,1h1a2.006,2.006,0,0,0-2-2h-1a2.006,2.006,0,0,0-2,2v3a2.006,2.006,0,0,0,2,2h1a2.006,2.006,0,0,0,2-2h-1a.945.945,0,0,1-1,1h-1a.945.945,0,0,1-1-1v-3A.945.945,0,0,1,422.75,278.313Z" transform="translate(-398.75 -264.313)"/>
      <path id="Контур_10" data-name="Контур 10" d="M309,277.312h-1a2.006,2.006,0,0,0-2,2v3a2.006,2.006,0,0,0,2,2h1a2.006,2.006,0,0,0,2-2v-3A2.006,2.006,0,0,0,309,277.312Zm1,5a.945.945,0,0,1-1,1h-1a.945.945,0,0,1-1-1v-3a.945.945,0,0,1,1-1h1a.945.945,0,0,1,1,1Z" transform="translate(-290 -264.312)"/>
    </g>
  </g>
</svg>
