<svg xmlns="http://www.w3.org/2000/svg" width="172.5" height="50.9" viewBox="0 0 172.5 50.9">
  <g id="RubEx_1" transform="translate(-4 -1.2)">
    <path id="Контур_1" data-name="Контур 1" d="M13.9,34.5V51.4H4V1.3H17.9a35.563,35.563,0,0,1,9.2,1C33.8,4,37.7,10.5,37.7,17.1a16.538,16.538,0,0,1-2.9,9.7c-1.9,3-6.1,5.8-9.6,6.8L38.5,51.3H26.6L13.9,34.5Zm0-8.3c7,0,14.3.5,14.3-8.8,0-8.3-8.1-8.2-14.3-8.2v17Z" fill="#231f20" fill-rule="evenodd"/>
    <path id="Контур_2" data-name="Контур 2" d="M69.4,21V35.6a33.25,33.25,0,0,1-.7,7,10.023,10.023,0,0,1-4,5.9,12.384,12.384,0,0,1-4.5,2.1,18.208,18.208,0,0,1-5.2.8H52.9a23.409,23.409,0,0,1-5.3-.8A13.67,13.67,0,0,1,43,48.5a9.733,9.733,0,0,1-4-5.9,33.25,33.25,0,0,1-.7-7V21h9.8V36.3A9.638,9.638,0,0,0,49,41c.8,1.5,3.3,1.9,4.8,1.9s4.3-.5,5.1-1.9a9.756,9.756,0,0,0,.8-4.8V21Z" fill="#231f20" fill-rule="evenodd"/>
    <path id="Контур_3" data-name="Контур 3" d="M80.9,22.9c.3-.2.5-.4.8-.6a9.5,9.5,0,0,1,1.7-1,8.955,8.955,0,0,1,2.3-.8,15.04,15.04,0,0,1,2.9-.3,13.879,13.879,0,0,1,5.7,1.2,13.073,13.073,0,0,1,4.4,3.3,14.148,14.148,0,0,1,2.8,5.1,20.522,20.522,0,0,1,1,6.5,18.136,18.136,0,0,1-1.1,6.5,14.827,14.827,0,0,1-3,5A12.817,12.817,0,0,1,93.9,51a13.8,13.8,0,0,1-5.7,1.1,9.887,9.887,0,0,1-3-.4,11.725,11.725,0,0,1-2.4-.9,9.5,9.5,0,0,1-1.7-1,2.7,2.7,0,0,1-.8-.7v2.2H71.2V9.3H81V21.2a10.284,10.284,0,0,1-.1,1.7Zm-.3,13.4a9.034,9.034,0,0,0,.4,2.8,6.59,6.59,0,0,0,1.1,2.4A4.944,4.944,0,0,0,84,43.1a5.834,5.834,0,0,0,2.6.6,5.291,5.291,0,0,0,3-.9,5.9,5.9,0,0,0,2.2-2.5,9.782,9.782,0,0,0,.9-4.1,9.68,9.68,0,0,0-.8-4.1,6.066,6.066,0,0,0-2.1-2.6,5.614,5.614,0,0,0-3.1-.9,5.381,5.381,0,0,0-2.2.4,5.223,5.223,0,0,0-1.9,1.4,6.983,6.983,0,0,0-1.3,2.4A9.1,9.1,0,0,0,80.6,36.3Z" fill="#231f20" fill-rule="evenodd"/>
    <path id="Контур_4" data-name="Контур 4" d="M104.3,51.3V1.2h30.8V12.1H117.8v8.8h17.3V31.6H117.8v8.5h17.3V51.3Z" fill="#d12127"/>
    <path id="Контур_5" data-name="Контур 5" d="M162.2,51.3l-6.7-7.5-6.6,7.5H135.1l13.5-15.2L135.1,20.9h14.3l6.7,7.4,6.4-7.4h13.8L162.8,36l13.7,15.3Z" fill="#d12127" fill-rule="evenodd"/>
  </g>
</svg>
