<svg xmlns="http://www.w3.org/2000/svg" width="172.5" height="50.9"><path data-name="Контур 1" d="M9.9 33.3v16.9H0V.1h13.9a35.563 35.563 0 019.2 1c6.7 1.7 10.6 8.2 10.6 14.8a16.538 16.538 0 01-2.9 9.7c-1.9 3-6.1 5.8-9.6 6.8l13.3 17.7H22.6L9.9 33.3zm0-8.3c7 0 14.3.5 14.3-8.8C24.2 7.9 16.1 8 9.9 8v17z" fill="#231f20" fill-rule="evenodd"/><path data-name="Контур 2" d="M65.4 19.8v14.6a33.25 33.25 0 01-.7 7 10.023 10.023 0 01-4 5.9 12.384 12.384 0 01-4.5 2.1 18.208 18.208 0 01-5.2.8h-2.1a23.409 23.409 0 01-5.3-.8 13.67 13.67 0 01-4.6-2.1 9.733 9.733 0 01-4-5.9 33.25 33.25 0 01-.7-7V19.8h9.8v15.3a9.638 9.638 0 00.9 4.7c.8 1.5 3.3 1.9 4.8 1.9s4.3-.5 5.1-1.9a9.756 9.756 0 00.8-4.8V19.8z" fill="#231f20" fill-rule="evenodd"/><path data-name="Контур 3" d="M76.9 21.7c.3-.2.5-.4.8-.6a9.5 9.5 0 011.7-1 8.955 8.955 0 012.3-.8 15.04 15.04 0 012.9-.3 13.879 13.879 0 015.7 1.2 13.073 13.073 0 014.4 3.3 14.148 14.148 0 012.8 5.1 20.522 20.522 0 011 6.5 18.136 18.136 0 01-1.1 6.5 14.827 14.827 0 01-3 5 12.817 12.817 0 01-4.5 3.2 13.8 13.8 0 01-5.7 1.1 9.887 9.887 0 01-3-.4 11.725 11.725 0 01-2.4-.9 9.5 9.5 0 01-1.7-1 2.7 2.7 0 01-.8-.7v2.2h-9.1v-42H77V20a10.284 10.284 0 01-.1 1.7zm-.3 13.4a9.034 9.034 0 00.4 2.8 6.59 6.59 0 001.1 2.4 4.944 4.944 0 001.9 1.6 5.834 5.834 0 002.6.6 5.291 5.291 0 003-.9 5.9 5.9 0 002.2-2.5 9.782 9.782 0 00.9-4.1 9.68 9.68 0 00-.8-4.1 6.066 6.066 0 00-2.1-2.6 5.614 5.614 0 00-3.1-.9 5.381 5.381 0 00-2.2.4 5.223 5.223 0 00-1.9 1.4 6.983 6.983 0 00-1.3 2.4 9.1 9.1 0 00-.7 3.5z" fill="#231f20" fill-rule="evenodd"/><path data-name="Контур 4" d="M100.3 50.1V0h30.8v10.9h-17.3v8.8h17.3v10.7h-17.3v8.5h17.3v11.2z" fill="#d12127"/><path data-name="Контур 5" d="M158.2 50.1l-6.7-7.5-6.6 7.5h-13.8l13.5-15.2-13.5-15.2h14.3l6.7 7.4 6.4-7.4h13.8l-13.5 15.1 13.7 15.3z" fill="#d12127" fill-rule="evenodd"/></svg>