<svg xmlns="http://www.w3.org/2000/svg" width="30" height="17.116" viewBox="0 0 30 17.116">
  <g id="vk-social-network-logo_icon-icons.com_73339" transform="translate(0 -117.748)">
    <path id="Контур_6" data-name="Контур 6" d="M29.841,133.206a2.054,2.054,0,0,0-.1-.2,15.548,15.548,0,0,0-2.983-3.452l-.031-.031-.016-.015-.016-.016h-.016q-1-.953-1.265-1.281a1.2,1.2,0,0,1-.219-1.265A11.794,11.794,0,0,1,26.6,124.9q.641-.828,1.015-1.328,2.7-3.593,2.343-4.592l-.093-.156a.913.913,0,0,0-.484-.258,2.459,2.459,0,0,0-1-.039l-4.5.031a.584.584,0,0,0-.312.008l-.2.047-.078.039-.062.047a.7.7,0,0,0-.172.164,1.072,1.072,0,0,0-.156.273,25.5,25.5,0,0,1-1.672,3.514q-.578.969-1.062,1.679a8.08,8.08,0,0,1-.812,1.046,5.666,5.666,0,0,1-.594.539q-.266.2-.406.172c-.094-.021-.182-.042-.266-.063a1.039,1.039,0,0,1-.351-.383,1.714,1.714,0,0,1-.18-.609q-.047-.367-.055-.633t.008-.75q.016-.484.016-.656,0-.594.023-1.289t.039-1.1q.016-.406.016-.859a3.609,3.609,0,0,0-.055-.711,2.431,2.431,0,0,0-.164-.5.842.842,0,0,0-.32-.375,1.805,1.805,0,0,0-.523-.211,10.394,10.394,0,0,0-2.109-.2,10.247,10.247,0,0,0-3.733.375,2.1,2.1,0,0,0-.593.468q-.281.344-.078.375a1.915,1.915,0,0,1,1.328.672l.094.188a2.988,2.988,0,0,1,.219.719,7.249,7.249,0,0,1,.14,1.14,12.159,12.159,0,0,1,0,1.952q-.078.812-.148,1.265a2.533,2.533,0,0,1-.211.734,3.1,3.1,0,0,1-.188.344.269.269,0,0,1-.078.078,1.17,1.17,0,0,1-.422.078.99.99,0,0,1-.531-.219,3.747,3.747,0,0,1-.648-.6,8.039,8.039,0,0,1-.758-1.07q-.422-.687-.875-1.624l-.25-.453q-.234-.437-.64-1.273t-.719-1.617a1.03,1.03,0,0,0-.375-.5l-.078-.047a1.069,1.069,0,0,0-.25-.133,1.659,1.659,0,0,0-.359-.1L1,118.531a1.088,1.088,0,0,0-.89.3l-.063.094a.505.505,0,0,0-.047.25,1.244,1.244,0,0,0,.094.422q.937,2.2,2.038,4.249t1.913,3.3q.812,1.25,1.656,2.359t1.117,1.421q.274.313.43.469l.391.375a9.267,9.267,0,0,0,1.1.9,18.784,18.784,0,0,0,1.609,1.031,8.728,8.728,0,0,0,2.054.828,7.1,7.1,0,0,0,2.28.258h1.8a1.244,1.244,0,0,0,.828-.344l.062-.078a1.035,1.035,0,0,0,.117-.289,1.587,1.587,0,0,0,.055-.43,5.147,5.147,0,0,1,.1-1.21,3.182,3.182,0,0,1,.266-.812,2,2,0,0,1,.336-.461,1.357,1.357,0,0,1,.266-.227,1.013,1.013,0,0,1,.125-.055.991.991,0,0,1,.883.242,5.185,5.185,0,0,1,.953.906q.445.539,1.07,1.21a7.35,7.35,0,0,0,1.093,1l.312.187a3.8,3.8,0,0,0,.813.344,1.751,1.751,0,0,0,.874.078l4-.062a1.812,1.812,0,0,0,.922-.2.774.774,0,0,0,.391-.43,1.21,1.21,0,0,0,.008-.531A1.96,1.96,0,0,0,29.841,133.206Z" transform="translate(0 0)"/>
  </g>
</svg>
